# xmcd CD database file
#
# Track frame offsets:
#	150
#	22437
#	41815
#	62470
#	86847
#	104822
#	120957
#	140362
#	161400
#
# Disc length: 2383 seconds
#
# Revision: 0
# Processed by: cddbd v1.5.2PL0 Copyright (c) Steve Scherf et al.
# Submitted via: CDex 1.70beta2
#
DISCID=7b094d09
DTITLE=Kimiko Itoh - A Touch Of Love
DYEAR=1985
DGENRE=Jazz
TTITLE0=Hello
TTITLE1=Summertime
TTITLE2=Hey, That's No Way To Say Goodbye
TTITLE3=Alone, Alone And Alone
TTITLE4=You Were Made For Me
TTITLE5=Alfie
TTITLE6=Will You Love Me Tomorrow
TTITLE7=Ordinary Fool
TTITLE8=The Island
EXTD=YEAR: 1985
EXTT0=
EXTT1=
EXTT2=
EXTT3=
EXTT4=
EXTT5=
EXTT6=
EXTT7=
EXTT8=
PLAYORDER=
